{
	"asset":{
		"generator":"Khronos glTF Blender I/O v5.1.20",
		"version":"2.0"
	},
	"scene":0,
	"scenes":[
		{
			"name":"Scene",
			"nodes":[
				5
			]
		}
	],
	"nodes":[
		{
			"mesh":0,
			"name":"base_link",
			"translation":[
				-0.003982933238148689,
				0.3299602270126343,
				0
			]
		},
		{
			"mesh":1,
			"name":"wheel_fl_link",
			"translation":[
				0.34559929370880127,
				0.15313144028186798,
				-0.2993274927139282
			]
		},
		{
			"mesh":2,
			"name":"wheel_fr_link",
			"translation":[
				0.34559932351112366,
				0.15313145518302917,
				0.2993275821208954
			]
		},
		{
			"mesh":3,
			"name":"wheel_rl_link",
			"translation":[
				-0.3455994129180908,
				0.15313145518302917,
				-0.2993274927139282
			]
		},
		{
			"mesh":4,
			"name":"wheel_rr_link",
			"translation":[
				-0.34559938311576843,
				0.15313145518302917,
				0.2993275821208954
			]
		},
		{
			"children":[
				0,
				1,
				2,
				3,
				4
			],
			"name":"demo_rover"
		}
	],
	"materials":[
		{
			"doubleSided":true,
			"name":"Material",
			"pbrMetallicRoughness":{
				"baseColorFactor":[
					0.6425459980964661,
					0.6515139937400818,
					0.7974610328674316,
					1
				],
				"metallicFactor":0,
				"roughnessFactor":0.3333333134651184
			}
		},
		{
			"doubleSided":true,
			"name":"Material.001",
			"pbrMetallicRoughness":{
				"baseColorFactor":[
					0.06593970209360123,
					0.06593970209360123,
					0.06593970209360123,
					1
				],
				"metallicFactor":0,
				"roughnessFactor":0.8888888955116272
			}
		}
	],
	"meshes":[
		{
			"name":"chassis_mesh",
			"primitives":[
				{
					"attributes":{
						"POSITION":0,
						"NORMAL":1,
						"TEXCOORD_0":2
					},
					"indices":3,
					"material":0
				}
			]
		},
		{
			"name":"wheel_fl_mesh",
			"primitives":[
				{
					"attributes":{
						"POSITION":4,
						"NORMAL":5,
						"TEXCOORD_0":6
					},
					"indices":7,
					"material":1
				}
			]
		},
		{
			"name":"wheel_fr_mesh",
			"primitives":[
				{
					"attributes":{
						"POSITION":8,
						"NORMAL":9,
						"TEXCOORD_0":10
					},
					"indices":11,
					"material":1
				}
			]
		},
		{
			"name":"wheel_rl_mesh",
			"primitives":[
				{
					"attributes":{
						"POSITION":12,
						"NORMAL":13,
						"TEXCOORD_0":14
					},
					"indices":11,
					"material":1
				}
			]
		},
		{
			"name":"wheel_rr_mesh",
			"primitives":[
				{
					"attributes":{
						"POSITION":15,
						"NORMAL":16,
						"TEXCOORD_0":17
					},
					"indices":7,
					"material":1
				}
			]
		}
	],
	"accessors":[
		{
			"bufferView":0,
			"componentType":5126,
			"count":1488,
			"max":[
				0.49125418066978455,
				0.1398986577987671,
				0.2847796678543091
			],
			"min":[
				-0.48328831791877747,
				-0.1993560492992401,
				-0.2847795784473419
			],
			"type":"VEC3"
		},
		{
			"bufferView":1,
			"componentType":5126,
			"count":1488,
			"type":"VEC3"
		},
		{
			"bufferView":2,
			"componentType":5126,
			"count":1488,
			"type":"VEC2"
		},
		{
			"bufferView":3,
			"componentType":5123,
			"count":4608,
			"type":"SCALAR"
		},
		{
			"bufferView":4,
			"componentType":5126,
			"count":955,
			"max":[
				0.1536342203617096,
				0.153634175658226,
				0.05818872153759003
			],
			"min":[
				-0.1536341905593872,
				-0.1536341905593872,
				-0.0616784393787384
			],
			"type":"VEC3"
		},
		{
			"bufferView":5,
			"componentType":5126,
			"count":955,
			"type":"VEC3"
		},
		{
			"bufferView":6,
			"componentType":5126,
			"count":955,
			"type":"VEC2"
		},
		{
			"bufferView":7,
			"componentType":5123,
			"count":5172,
			"type":"SCALAR"
		},
		{
			"bufferView":8,
			"componentType":5126,
			"count":955,
			"max":[
				0.1536341905593872,
				0.1536341905593872,
				0.0616784393787384
			],
			"min":[
				-0.1536341905593872,
				-0.153634175658226,
				-0.05818873643875122
			],
			"type":"VEC3"
		},
		{
			"bufferView":9,
			"componentType":5126,
			"count":955,
			"type":"VEC3"
		},
		{
			"bufferView":10,
			"componentType":5126,
			"count":955,
			"type":"VEC2"
		},
		{
			"bufferView":11,
			"componentType":5123,
			"count":5172,
			"type":"SCALAR"
		},
		{
			"bufferView":12,
			"componentType":5126,
			"count":955,
			"max":[
				0.1536341905593872,
				0.1536341905593872,
				0.05818872153759003
			],
			"min":[
				-0.1536341905593872,
				-0.1536341905593872,
				-0.0616784393787384
			],
			"type":"VEC3"
		},
		{
			"bufferView":13,
			"componentType":5126,
			"count":955,
			"type":"VEC3"
		},
		{
			"bufferView":14,
			"componentType":5126,
			"count":955,
			"type":"VEC2"
		},
		{
			"bufferView":15,
			"componentType":5126,
			"count":955,
			"max":[
				0.1536341905593872,
				0.1536341905593872,
				0.0616784393787384
			],
			"min":[
				-0.1536341905593872,
				-0.1536341905593872,
				-0.05818873643875122
			],
			"type":"VEC3"
		},
		{
			"bufferView":16,
			"componentType":5126,
			"count":955,
			"type":"VEC3"
		},
		{
			"bufferView":17,
			"componentType":5126,
			"count":955,
			"type":"VEC2"
		}
	],
	"bufferViews":[
		{
			"buffer":0,
			"byteLength":17856,
			"byteOffset":0,
			"target":34962
		},
		{
			"buffer":0,
			"byteLength":17856,
			"byteOffset":17856,
			"target":34962
		},
		{
			"buffer":0,
			"byteLength":11904,
			"byteOffset":35712,
			"target":34962
		},
		{
			"buffer":0,
			"byteLength":9216,
			"byteOffset":47616,
			"target":34963
		},
		{
			"buffer":0,
			"byteLength":11460,
			"byteOffset":56832,
			"target":34962
		},
		{
			"buffer":0,
			"byteLength":11460,
			"byteOffset":68292,
			"target":34962
		},
		{
			"buffer":0,
			"byteLength":7640,
			"byteOffset":79752,
			"target":34962
		},
		{
			"buffer":0,
			"byteLength":10344,
			"byteOffset":87392,
			"target":34963
		},
		{
			"buffer":0,
			"byteLength":11460,
			"byteOffset":97736,
			"target":34962
		},
		{
			"buffer":0,
			"byteLength":11460,
			"byteOffset":109196,
			"target":34962
		},
		{
			"buffer":0,
			"byteLength":7640,
			"byteOffset":120656,
			"target":34962
		},
		{
			"buffer":0,
			"byteLength":10344,
			"byteOffset":128296,
			"target":34963
		},
		{
			"buffer":0,
			"byteLength":11460,
			"byteOffset":138640,
			"target":34962
		},
		{
			"buffer":0,
			"byteLength":11460,
			"byteOffset":150100,
			"target":34962
		},
		{
			"buffer":0,
			"byteLength":7640,
			"byteOffset":161560,
			"target":34962
		},
		{
			"buffer":0,
			"byteLength":11460,
			"byteOffset":169200,
			"target":34962
		},
		{
			"buffer":0,
			"byteLength":11460,
			"byteOffset":180660,
			"target":34962
		},
		{
			"buffer":0,
			"byteLength":7640,
			"byteOffset":192120,
			"target":34962
		}
	],
	"buffers":[
		{
			"byteLength":199760,
			"uri":"demo_rover.bin"
		}
	]
}
