{
  "asset": {
    "version": "2.0",
    "generator": "Anygine TransparentSwatch fixture"
  },
  "scene": 0,
  "scenes": [
    {
      "nodes": [
        0
      ]
    }
  ],
  "nodes": [
    {
      "mesh": 0,
      "name": "TransparentSwatchRoot"
    }
  ],
  "meshes": [
    {
      "name": "TransparentSwatchMesh",
      "primitives": [
        {
          "attributes": {
            "POSITION": 0,
            "NORMAL": 1,
            "TEXCOORD_0": 2,
            "TANGENT": 3
          },
          "indices": 4,
          "material": 0,
          "mode": 4
        },
        {
          "attributes": {
            "POSITION": 0,
            "NORMAL": 1,
            "TEXCOORD_0": 2,
            "TANGENT": 3
          },
          "indices": 4,
          "material": 1,
          "mode": 4
        }
      ]
    }
  ],
  "materials": [
    {
      "name": "OpaqueBackground",
      "pbrMetallicRoughness": {
        "baseColorFactor": [
          0.78,
          0.18,
          0.18,
          1.0
        ],
        "metallicFactor": 0.0,
        "roughnessFactor": 0.85
      },
      "alphaMode": "OPAQUE"
    },
    {
      "name": "GlassPane",
      "pbrMetallicRoughness": {
        "baseColorFactor": [
          0.35,
          0.72,
          0.95,
          0.42
        ],
        "metallicFactor": 0.0,
        "roughnessFactor": 0.06
      },
      "alphaMode": "BLEND"
    }
  ],
  "accessors": [
    {
      "bufferView": 0,
      "componentType": 5126,
      "count": 4,
      "type": "VEC3",
      "min": [
        -1,
        -1,
        0
      ],
      "max": [
        1,
        1,
        0
      ]
    },
    {
      "bufferView": 1,
      "componentType": 5126,
      "count": 4,
      "type": "VEC3"
    },
    {
      "bufferView": 2,
      "componentType": 5126,
      "count": 4,
      "type": "VEC2"
    },
    {
      "bufferView": 3,
      "componentType": 5126,
      "count": 4,
      "type": "VEC4"
    },
    {
      "bufferView": 4,
      "componentType": 5125,
      "count": 6,
      "type": "SCALAR"
    }
  ],
  "bufferViews": [
    {
      "buffer": 0,
      "byteOffset": 0,
      "byteLength": 48
    },
    {
      "buffer": 0,
      "byteOffset": 48,
      "byteLength": 48
    },
    {
      "buffer": 0,
      "byteOffset": 96,
      "byteLength": 32
    },
    {
      "buffer": 0,
      "byteOffset": 128,
      "byteLength": 64
    },
    {
      "buffer": 0,
      "byteOffset": 192,
      "byteLength": 24
    }
  ],
  "buffers": [
    {
      "byteLength": 216,
      "uri": "TransparentSwatch.bin"
    }
  ]
}
